<?xml version="1.0" encoding="UTF-8" standalone="no"?>
<svg width="16" height="16" viewBox="0 0 4.233 4.233" xmlns="http://www.w3.org/2000/svg">
   <path stroke="currentColor" stroke-linecap="round" stroke-linejoin="round" stroke-width=".397" d="M4.024.41a.265.265 0 0 0-.265-.265H2.635a.53.53 0 0 0-.53.529V3.98l.22-.219c.198-.198.467-.31.748-.31h.686a.265.265 0 0 0 .265-.265z" style="fill:#2d1924;fill-opacity:1;stroke:#2d1924;stroke-width:.397;stroke-miterlimit:4;stroke-dasharray:none;stroke-opacity:1" transform="translate(.011 .054)" />
   <path stroke="currentColor" stroke-linecap="round" stroke-linejoin="round" stroke-width=".397" d="M.187.41c0-.147.119-.265.265-.265h1.124a.53.53 0 0 1 .53.529V3.98l-.22-.219a1.058 1.058 0 0 0-.748-.31H.452a.265.265 0 0 1-.265-.265z" style="fill:#2d1924;fill-opacity:1;stroke:#2d1924;stroke-opacity:1" transform="translate(.011 .054)" />
   <path style="fill:#f8c1da;fill-opacity:1;stroke-width:.264583" d="M3.133 1.495c.041-.037.067-.058.107-.1.024-.025.046-.052.07-.079.035-.04.134-.153.167-.194.027-.035.053-.073.08-.109.024-.04.05-.08.072-.123.038-.073.075-.166.095-.246a.488.488 0 0 0 .018-.187C3.738.433 3.728.41 3.72.387c-.013-.02-.023-.042-.04-.06a.354.354 0 0 0-.227-.103C3.36.218 3.306.24 3.212.26c-.146.047-.182.056-.327.114-.054.022-.109.042-.16.069-.088.044-.303.179-.39.232l-.013.01c.196-.095.026-.017.21-.09.05-.02.101-.044.153-.064.147-.058.17-.063.319-.112.084-.02.142-.042.228-.039a.29.29 0 0 1 .205.091c.014.016.022.035.034.053.005.021.012.042.015.064a.53.53 0 0 1-.02.178c-.021.08-.057.167-.096.24-.021.04-.047.079-.07.119l-.08.106-.078.098c-.038.048-.088.112-.128.16l-.042.051-.024.032.186-.077z" transform="translate(.011 .054)" />
   <path style="fill:#f8c1da;fill-opacity:1;stroke-width:.264583" d="M3.145 1.46c-.032.02-.066.035-.094.06-.01.008.025-.009.037-.012.017-.004.034-.008.052-.009a.394.394 0 0 1 .135.017c.026.007.05.02.076.03.024.014.05.027.072.044a.374.374 0 0 1 .116.129c.033.059.056.131.07.197.008.036.012.073.018.11.002.039.007.078.006.117a.898.898 0 0 1-.015.13.872.872 0 0 1-.095.273c-.065.117-.121.17-.21.271a2.864 2.864 0 0 1-.348.258c-.376.169-.188.095-.562.222l-.012.01c.049.002.098.01.147.006.26-.028.461-.184.685-.316.187-.11.225-.16.379-.302.091-.106.152-.163.216-.284a.88.88 0 0 0 .1-.416c.001-.04-.004-.08-.007-.12-.007-.038-.013-.075-.022-.112a.642.642 0 0 0-.085-.203.372.372 0 0 0-.148-.124c-.03-.015-.062-.024-.094-.035-.08-.017-.107-.028-.189-.026a.48.48 0 0 0-.201.048c-.052.027-.101.057-.152.086l.125-.049z" transform="translate(.011 .054)" />
   <path style="fill:#f8c1da;fill-opacity:1;stroke:#f8c1da;stroke-width:.0661458;stroke-linecap:round;stroke-linejoin:round;stroke-miterlimit:4;stroke-dasharray:none;stroke-opacity:1" d="M2.728.905c0 .11 0 .16.007.28.005.072.013.143.02.215l.024.246c.033.338.017.157.046.492l.03.41c.005.049.012.098.02.147.006.037.009.076.023.11l.075.104.014-.008v0l.006-.058c.005-.032.016-.064.017-.096.001-.04-.007-.078-.01-.117-.018-.185-.04-.37-.056-.554l-.024-.243a22.857 22.857 0 0 0-.06-.488c-.01-.07-.018-.14-.03-.21-.014-.09-.034-.168-.054-.255l-.048.025z" transform="translate(.011 .054)" />
   <g style="stroke:#f8c1da;stroke-width:.0294367;stroke-linecap:round;stroke-miterlimit:4;stroke-dasharray:none;stroke-opacity:1">
      <path style="fill:#f8c1da;fill-opacity:1;stroke:#f8c1da;stroke-width:.0294367;stroke-linecap:round;stroke-miterlimit:4;stroke-dasharray:none;stroke-opacity:1" d="M.258 2.237a3.4 3.4 0 0 1 .24.456c.054.127.065.17.11.299.032.121.034.118.057.232l.014.074c0 .003.006.056.005.07l-.002.005c.024-.04.05-.078.073-.12.001-.002-.005 0-.007-.003a.12.12 0 0 1-.02-.038C.72 3.184.72 3.164.716 3.134c0-.026-.002-.053 0-.08a1.883 1.883 0 0 1 .114-.622c.024-.066.054-.13.081-.196.087-.215.035-.105.16-.327l-.007.008v0c-.144.257-.065.116-.236.425-.027.066-.057.13-.08.197a1.758 1.758 0 0 0-.097.606l.003.078.006.047a.547.547 0 0 0 .023.083c.002.006.002.022.006.018.032-.035.055-.076.082-.114l.002-.011c.002-.028-.001-.042-.006-.072l-.013-.076c-.02-.09-.035-.138-.062-.23C.674 2.82.66 2.77.64 2.721a2.405 2.405 0 0 0-.205-.42 1.84 1.84 0 0 0-.066-.1L.32 2.14l-.062.098z" transform="matrix(1.1247 .1639 -.1679 1.09788 .417 -.281)" />
      <path style="fill:#f8c1da;fill-opacity:1;stroke:#f8c1da;stroke-width:.0294367;stroke-linecap:round;stroke-miterlimit:4;stroke-dasharray:none;stroke-opacity:1" d="m.649 2.233.046.083.074.118c.09.145.18.29.259.441.023.044.044.09.066.134.042.095.05.106.08.195a.815.815 0 0 1 .02.079l-.001.007c.027-.044.052-.089.078-.133-.008-.003 0 0-.009-.01-.013-.016-.012-.006-.02-.034-.018-.055-.017-.081-.024-.144.001-.12-.003-.17.019-.293.024-.137.059-.252.115-.38.051-.115.094-.182.153-.282l.11-.16.004-.01v0l-.097.125c-.057.087-.118.171-.171.26a1.48 1.48 0 0 0-.217.726c-.001.041.004.083.005.125.005.03.008.06.014.09.008.04.012.05.025.083.002.006.003.011.006.016.004.009.009.015.015.023.03-.044.06-.086.088-.13.002-.004 0-.008 0-.012a.223.223 0 0 0-.006-.028c-.025-.085-.064-.165-.099-.246l-.067-.134A4.7 4.7 0 0 0 .77 2.2L.714 2.13l-.065.103z" transform="matrix(1.1247 .1639 -.1679 1.09788 .417 -.281)" />
   </g>
   <g style="stroke:#f8c1da;stroke-width:.10863;stroke-linecap:round;stroke-linejoin:round;stroke-miterlimit:4;stroke-dasharray:none;stroke-opacity:1">
      <path style="fill:#f8c1da;fill-opacity:1;stroke:#f8c1da;stroke-width:.10863;stroke-linecap:round;stroke-linejoin:round;stroke-miterlimit:4;stroke-dasharray:none;stroke-opacity:1" d="M1.285 1.521c-.017-.014-.036-.027-.053-.042a4.596 4.596 0 0 1-.204-.194 4.294 4.294 0 0 1-.232-.25C.76.991.728.947.695.904L.626.822.623.815v0l.038.022c.1.076.048.032.163.152.04.042.08.085.121.126.037.039.076.076.114.114.086.085.074.072.147.139l.08.153zM1.285.09l-.053.043a4.654 4.654 0 0 0-.204.2A4.37 4.37 0 0 0 .796.59C.76.634.728.68.695.723L.626.81.623.815v0L.661.794C.761.715.71.76.824.637l.121-.13c.037-.04.076-.078.114-.117.086-.087.074-.074.147-.142l.08-.158z" transform="matrix(1.24635 0 0 1.18994 -.238 .034)" />
   </g>
</svg>