<?xml version="1.0" encoding="UTF-8" standalone="no"?>
<!-- Generator: Adobe Illustrator 15.0.0, SVG Export Plug-In . SVG Version: 6.00 Build 0)  -->

<svg version="1.1" id="Layer_1" x="0px" y="0px" width="125.762" height="96.137001" viewBox="0 0 125.762 96.137004" enable-background="new 0 0 290.547 141.73" xml:space="preserve" xmlns="http://www.w3.org/2000/svg" xmlns:svg="http://www.w3.org/2000/svg">
   <defs id="defs113"></defs>
   <g id="lion" transform="translate(-6.351,-36.752)">
      <path fill="currentColor" d="m 23.126,62.355 c 1.08,0.59 2.354,0.982 3.826,1.276 l 1.275,5.886 -5.886,25.31 -2.649,1.864 -7.356,31.588 -5.985,4.61 z m 4.905,0.099 c -5.493,-0.099 -9.908,-4.415 -9.908,-9.81 0,-5.788 4.514,-9.908 10.203,-9.908 2.649,0 5.003,1.176 6.573,3.139 -2.256,-0.294 -4.414,1.276 -5.101,3.042 -0.589,-0.196 -1.08,-0.196 -1.472,-0.196 -2.256,0 -4.021,1.766 -4.021,3.924 0,2.158 1.766,4.022 4.021,4.022 2.257,0 3.63,-1.767 3.63,-4.022 0,-0.099 0,-0.294 0,-0.393 0.099,-0.098 0.294,-0.098 0.589,-0.098 0.392,0 0.784,0.197 0.784,0.883 0,0.785 -0.295,2.256 -0.295,3.728 0,1.373 0.295,2.354 0.688,3.335 l 3.335,13.93 c -0.491,0.393 -0.981,0.882 -1.374,1.473 -1.864,0.392 -3.434,1.569 -4.12,3.237 z m 20.503,9.221 c -2.845,0 -4.611,0.196 -6.573,0.196 -3.042,0 -5.297,-1.276 -5.983,-3.728 1.177,0 2.06,-0.981 2.06,-2.158 0,-2.354 -3.629,-4.709 -3.629,-9.221 0,-1.472 0.195,-2.844 0.195,-3.924 0,-1.178 -0.98,-1.962 -2.059,-1.962 -0.883,0 -1.668,0.392 -2.06,0.784 -0.197,-2.747 2.06,-4.806 4.904,-4.61 0.393,-0.883 1.864,-1.962 3.531,-1.962 1.178,0 1.767,0.295 2.354,0.687 0.491,-0.196 1.08,-0.294 1.864,-0.294 2.257,0 4.709,1.864 4.709,4.708 0,2.649 -1.569,3.924 -3.139,5.003 -0.785,0.588 -0.981,1.177 -0.883,2.059 0.098,1.08 0.687,2.945 0.98,3.924 0.294,0.884 0.982,1.276 2.06,1.177 5.395,-0.392 13.146,-0.98 17.855,-1.177 4.413,-0.195 7.553,-0.294 11.184,-0.49 -6.868,1.667 -10.792,6.279 -11.872,12.853 l -3.139,1.666 C 60.208,72.558 56.676,71.675 48.534,71.675 Z M 44.119,98.26 c 1.178,-0.293 1.766,-1.177 1.766,-1.961 0,-1.177 -0.688,-1.963 -1.569,-2.551 -1.472,-0.883 -3.042,-1.667 -4.415,-2.846 -1.472,-1.274 -2.354,-2.354 -3.237,-3.531 -0.686,-0.784 -1.276,-1.08 -2.159,-1.08 -1.079,0 -1.864,0.785 -1.864,1.669 0,0.491 0.099,0.882 0.295,1.177 -1.472,-0.49 -2.354,-2.061 -2.354,-3.729 0,-1.568 0.981,-2.747 1.962,-3.334 -0.098,-0.295 -0.197,-0.687 -0.197,-1.178 0,-2.06 1.668,-4.022 4.316,-4.218 0.491,-1.374 1.961,-2.452 3.924,-2.452 2.354,0 4.807,1.766 4.807,4.905 0,1.568 -0.392,1.961 -0.392,3.139 0,0.687 0.195,1.273 1.177,2.256 1.178,1.178 1.765,1.865 2.453,1.865 0.687,0 1.08,-0.297 1.864,-0.886 4.414,-3.727 8.24,-7.65 13.537,-10.495 0.099,4.61 1.865,8.339 5.69,11.182 l -3.336,2.552 C 65.8,88.155 65.21,87.96 64.425,87.96 c -1.274,0 -2.549,0.491 -4.512,1.766 -2.257,1.473 -5.984,5.298 -8.632,7.848 -1.472,1.471 -3.042,2.258 -4.514,2.258 C 45.59,99.831 44.611,99.34 44.119,98.26 Z M 35.781,80.21 c -1.275,0 -2.157,0.687 -2.354,1.472 0.393,-0.098 0.883,-0.195 1.472,-0.195 1.473,0 2.747,0.687 3.335,1.863 0.293,-1.864 -0.785,-3.14 -2.453,-3.14 z m 9.222,48.068 -7.358,-31.588 -2.649,-1.864 -1.275,-6.082 c -0.197,-0.784 0.196,-1.178 0.784,-1.178 0.393,0 0.688,0.198 1.08,0.589 1.275,1.473 2.06,2.354 3.434,3.532 0.785,0.688 1.766,1.275 2.747,1.765 l 6.082,26.39 c -0.981,0.882 -1.667,2.256 -1.667,3.727 0,1.081 0.294,2.061 0.785,2.944 -0.197,0.49 -0.295,0.981 -0.295,1.57 0,0.587 0.098,1.177 0.393,1.765 z M 40.195,49.799 c 0,-1.667 -1.374,-2.747 -2.648,-2.747 -0.589,0 -0.981,0.196 -1.275,0.294 1.668,0.687 2.846,2.158 2.747,4.905 0.882,-0.588 1.176,-1.569 1.176,-2.452 z m 1.57,28.94 c 0,-1.276 -1.079,-2.452 -2.453,-2.452 -0.785,0 -1.274,0.293 -1.569,0.489 1.864,0.393 3.335,1.963 3.434,3.924 0.294,-0.49 0.588,-0.981 0.588,-1.961 z M 44.904,49.21 c 0,-1.472 -1.276,-2.551 -2.747,-2.551 0.588,0.491 1.177,1.668 1.177,2.944 0,0.587 -0.099,1.372 -0.491,2.255 1.178,-0.391 2.061,-1.275 2.061,-2.648 z m 3.139,78.873 c 0,-0.687 0.098,-1.08 0.393,-1.768 -0.492,-0.587 -0.884,-1.568 -0.884,-2.747 0,-1.176 0.589,-2.452 1.864,-3.236 -0.392,-2.942 1.962,-4.905 4.611,-4.905 2.942,0 4.414,2.061 4.904,4.121 0.393,1.471 0.981,1.963 1.668,2.059 1.276,0.198 3.335,0 4.121,-0.193 0.882,-0.198 1.274,-0.689 1.274,-2.16 0.099,-10.3 -1.177,-16.873 -1.177,-20.6 0,-4.022 2.256,-5.788 4.611,-6.572 3.141,-1.08 9.32,-1.963 12.36,-1.865 1.373,0 2.062,0.883 2.649,1.768 1.08,1.666 1.962,3.432 3.04,5.688 -0.784,0.394 -1.176,1.08 -1.176,2.06 0,1.374 0.785,2.552 1.865,3.142 l -11.479,0.293 c -0.098,0.687 -0.098,1.373 -0.098,1.961 0,1.275 0.882,2.159 2.061,2.159 0.884,0 1.668,-0.295 2.353,-0.884 0.395,4.022 -2.06,5.299 -4.609,5.396 0.098,3.629 0.294,6.276 0.294,12.852 0,4.708 -2.354,7.553 -5.69,7.553 0.196,-0.196 0.295,-0.49 0.295,-0.785 0,-1.862 -2.061,-2.747 -3.532,-2.747 -2.943,0 -4.513,2.355 -7.75,2.355 -2.844,0 -4.021,-2.355 -6.18,-2.355 -1.373,0 -2.354,0.885 -2.354,2.061 0,0.588 0.197,1.079 0.589,1.571 -1.864,-0.003 -4.023,-1.771 -4.023,-4.222 z m 3.826,-5.299 c -1.863,0 -2.844,1.472 -2.648,2.649 0.393,-0.489 1.178,-1.178 2.747,-1.178 1.276,0 2.256,0.589 2.845,1.275 -0.001,-1.372 -0.982,-2.746 -2.944,-2.746 z m 0.883,-4.513 c -1.57,0 -2.354,0.884 -2.454,1.668 0.393,-0.196 0.982,-0.392 1.865,-0.392 1.569,0 2.844,0.882 3.237,1.766 0.198,-1.57 -0.785,-3.042 -2.648,-3.042 z M 65.505,75.108 c 0,-6.475 4.905,-12.262 12.459,-14.028 2.845,-0.687 5.296,-1.08 8.632,-1.962 6.279,-1.668 8.242,-4.415 8.242,-8.044 0,-0.981 -0.198,-1.766 -0.688,-2.55 0.098,0.588 0.098,1.08 0.098,1.667 0,3.924 -3.629,7.456 -8.928,7.946 -2.845,0.196 -5.885,0.588 -8.828,0.884 -0.688,0.098 -0.98,-0.197 -0.98,-0.785 l -0.1,-4.708 c 0,-0.197 0.1,-0.393 0.393,-0.393 0.199,0 0.295,0.098 0.393,0.294 0.591,0.884 1.767,1.766 3.434,1.766 1.373,0 2.158,-0.785 2.158,-1.667 0,-0.982 -0.883,-1.865 -2.647,-1.865 -3.827,0 -5.787,2.649 -10.008,2.649 -4.609,0 -6.18,-2.257 -6.18,-4.415 0,-1.766 0.981,-2.845 2.256,-3.433 -0.392,0.49 -0.489,0.883 -0.489,1.57 0,1.471 1.765,2.648 4.904,2.648 2.944,0 4.807,-0.686 7.063,-0.686 2.942,0 4.71,0.98 5.494,2.059 -0.098,-2.256 -1.766,-4.218 -3.924,-4.218 -1.471,0 -2.062,0.884 -2.255,1.276 -0.1,0.294 -0.297,0.393 -0.492,0.393 -0.197,0 -0.394,-0.098 -0.394,-0.294 l -0.49,-4.905 c -0.098,-0.588 0.197,-0.883 0.981,-0.98 l 5.003,-0.393 c 0.884,2.452 1.473,3.826 2.747,3.826 0.686,0 0.981,-0.785 0.981,-1.471 1.079,-0.295 2.157,-0.295 3.236,-0.197 -1.274,-0.882 -5.492,-0.393 -6.769,-2.157 2.061,-0.099 3.63,-0.197 5.296,-0.197 1.67,0 3.141,0 4.515,0.197 1.569,0.195 3.139,1.079 3.139,2.747 0,1.079 -0.589,1.863 -1.667,1.863 -0.394,0 -0.688,-0.098 -1.08,-0.392 0.098,0.784 0.882,1.276 1.667,1.276 1.275,0 2.16,-0.785 2.16,-2.453 0,-0.883 -0.198,-1.863 -0.885,-2.648 2.061,1.667 3.336,4.609 3.336,8.043 0,5.984 -2.157,9.124 -8.828,11.478 -3.434,1.177 -6.181,1.962 -9.614,3.237 -5.59,2.06 -8.927,5.886 -8.927,11.282 0,3.728 1.864,7.945 5.788,9.908 C 69.723,86.489 65.505,81.093 65.505,75.108 Z m 5.886,2.55 c 0,-5.296 2.943,-8.436 8.633,-10.594 3.138,-1.177 6.181,-2.06 9.025,-2.942 6.964,-2.453 9.418,-6.083 9.418,-12.557 0,-2.747 -0.785,-5.396 -2.061,-6.965 2.158,1.864 3.923,4.708 3.923,9.613 0,5.101 -1.472,10.301 -8.535,12.949 -3.334,1.276 -5.199,1.962 -8.73,3.433 -5.492,2.356 -7.26,5.495 -7.26,9.712 0,4.023 2.159,6.279 3.826,7.652 -4.021,-0.686 -8.239,-4.807 -8.239,-10.301 z m 5.886,2.747 c 0,-3.923 1.864,-6.572 6.67,-8.828 3.043,-1.375 5.298,-1.864 8.83,-3.335 6.963,-2.747 8.73,-7.946 8.73,-13.93 0,-2.061 -0.295,-4.513 -1.373,-6.573 1.471,1.766 3.236,4.513 3.236,9.908 0,5.592 -1.863,10.791 -8.044,13.832 -2.942,1.374 -4.905,2.159 -8.239,3.728 -3.828,1.963 -5.984,4.71 -5.984,7.946 0,2.552 1.177,4.515 2.256,5.592 -3.728,-1.078 -6.082,-4.609 -6.082,-8.34 z m 8.928,-38.748 c -1.962,0 -3.925,0.099 -5.985,0.294 l -2.647,-5.199 h 4.513 c 0,1.177 0.882,2.06 1.96,2.06 1.08,0 1.962,-0.883 1.962,-2.06 h 4.023 c 0,1.274 0.784,2.06 1.962,2.06 1.079,0 1.961,-1.079 1.961,-2.06 h 4.515 l -3.043,5.396 c -2.453,-0.294 -5.591,-0.491 -9.221,-0.491 z m -3.63,41.593 c 0,-2.747 1.863,-5.001 5.199,-6.768 2.354,-1.178 4.316,-1.963 8.239,-3.925 6.181,-3.041 8.534,-8.043 8.534,-14.812 0,-1.766 -0.293,-3.238 -0.588,-5.003 1.079,2.158 1.962,4.708 1.962,7.945 0,6.475 -2.256,12.755 -8.73,16.089 -2.747,1.373 -4.316,2.258 -6.377,3.237 -3.138,1.374 -4.609,3.53 -4.609,6.081 0,1.963 0.489,3.042 0.98,3.926 -2.844,-0.784 -4.61,-3.335 -4.61,-6.77 z m 5.002,16.678 c 0,-0.981 0.295,-1.57 1.473,-1.766 -1.373,-3.04 -2.454,-5.003 -3.238,-6.278 -0.293,-0.492 0,-0.785 0.394,-0.785 0.587,0 1.078,0.195 1.472,0.785 0.685,0.884 1.568,2.255 2.256,3.531 1.275,2.256 2.06,4.416 2.158,7.555 H 91.11 c -2.06,0 -3.533,-1.472 -3.533,-3.042 z m 6.965,28.155 c 0,-0.687 0.098,-1.08 0.394,-1.768 -0.491,-0.587 -0.883,-1.568 -0.883,-2.747 0,-1.176 0.587,-2.452 1.863,-3.236 -0.392,-2.942 1.963,-4.905 4.61,-4.905 2.944,0 4.415,2.061 4.906,4.121 0.392,1.471 0.979,1.963 1.667,2.059 1.274,0.198 3.334,0 4.119,-0.193 0.884,-0.198 1.275,-0.689 1.275,-2.16 0,-2.452 -0.687,-5.688 -1.275,-8.436 -1.47,0.196 -5.101,0.392 -7.848,0.392 -6.082,0 -9.516,-2.745 -10.103,-8.73 -0.197,-2.453 -0.688,-4.808 -2.16,-7.455 -1.078,-2.061 -3.531,-4.808 -3.531,-8.339 0,-2.649 0.981,-4.219 4.021,-5.689 2.159,-0.981 4.71,-2.158 6.869,-3.435 -0.099,3.435 1.96,8.046 4.609,10.006 2.943,2.159 5.69,2.748 9.712,2.748 4.61,0 9.025,-1.375 11.378,-4.122 -1.373,0.884 -3.236,1.374 -5.592,1.374 -7.257,0 -11.868,-5.592 -11.868,-11.574 0,-4.317 2.354,-8.144 6.278,-11.38 3.236,-2.649 6.182,-4.316 8.437,-6.573 1.47,-1.472 2.745,-3.237 2.745,-5.297 0,-2.453 -1.666,-4.808 -3.432,-5.494 0.98,-1.177 2.94,-2.256 4.708,-2.256 2.942,0 5.689,2.158 5.689,5.003 0,2.158 -1.275,3.825 -2.942,4.61 0.098,1.668 -0.982,3.825 -2.256,5.199 -2.452,2.648 -6.966,5.494 -9.909,7.848 -2.942,2.354 -4.511,4.807 -4.511,8.143 0,4.414 3.529,7.651 8.043,7.651 4.218,0 7.849,-3.237 7.849,-7.749 0,-4.121 -2.943,-7.163 -7.455,-9.222 l 3.725,-2.649 c 4.023,2.354 8.439,5.591 8.439,12.558 0,9.612 -7.75,18.051 -20.308,18.051 -3.924,0 -5.003,-0.492 -7.455,-1.473 1.569,1.473 3.236,3.63 3.334,6.277 1.963,0.591 3.337,0.885 7.555,0.885 1.865,0 4.414,-0.294 6.475,-0.885 1.472,-0.392 2.354,-0.98 2.846,-1.667 0.49,0.784 0.784,1.667 0.784,2.452 0,2.257 -1.67,4.022 -3.434,4.415 0.687,6.964 1.275,13.929 1.275,20.209 0,4.708 -2.354,7.553 -5.69,7.553 0.196,-0.196 0.294,-0.49 0.294,-0.785 0,-1.862 -2.059,-2.747 -3.531,-2.747 -2.941,0 -4.511,2.355 -7.749,2.355 -2.845,0 -4.023,-2.355 -6.181,-2.355 -1.374,0 -2.354,0.885 -2.354,2.061 0,0.588 0.195,1.079 0.589,1.571 -1.863,-0.001 -4.021,-1.769 -4.021,-4.22 z m 3.827,-5.299 c -1.864,0 -2.845,1.472 -2.648,2.649 0.391,-0.489 1.175,-1.178 2.747,-1.178 1.272,0 2.256,0.589 2.843,1.275 0,-1.372 -0.981,-2.746 -2.942,-2.746 z m 0.883,-4.513 c -1.569,0 -2.356,0.884 -2.452,1.668 0.392,-0.196 0.979,-0.392 1.863,-0.392 1.569,0 2.845,0.882 3.238,1.766 0.194,-1.57 -0.785,-3.042 -2.649,-3.042 z m 12.263,-63.862 c -1.473,-0.784 -2.747,-2.452 -2.747,-4.414 0,-2.845 2.451,-5.003 5.394,-5.003 2.259,0 3.827,1.08 4.808,2.256 -1.862,0.98 -3.334,3.334 -3.334,5.494 0,2.845 1.472,4.61 2.843,6.082 l -3.628,2.649 c -2.062,-1.865 -3.336,-4.317 -3.336,-7.064 z" id="path8" />
   </g>
</svg>